# xmcd
#
# Track frame offsets:
#	150
#	21958
#	40229
#	61881
#	78437
#	96133
#	113716
#	130940
#	148004
#	168720
#	187237
#	208879
#	226769
#	245143
#	263666
#	279704
#
# Disc length: 3896 seconds
#
# Revision: 0
# Processed by: cddbd v1.5.2PL0 Copyright (c) Steve Scherf et al.
# Submitted via: EZCDAudioConverter 2.3.5.1
#
DISCID=ee0f3610
DTITLE=7080 반갑다 친구야 Vol.2 - CD1
DYEAR=1900
DGENRE=
TTITLE0=신승훈 - 미소 속에 비친 그대
TTITLE1=변진섭 - 너에게로 또 다시
TTITLE2=시인과 촌장 - 사랑일기
TTITLE3=마로니에 - 칵테일 사랑
TTITLE4=신형원 - 불씨
TTITLE5=진시몬 - 낯설은 아쉬움
TTITLE6=이규석 - 기차와 소나무
TTITLE7=박남정 - 널 그리며
TTITLE8=나미 - 슬픈 인연
TTITLE9=장혜리 - 내게 남은 사랑을 드릴께요
TTITLE10=박정운 - 오늘 같은 밤이면
TTITLE11=윤수일 - 제2의 고향
TTITLE12=이광조 - 가까이 하기엔 너무 먼 당신
TTITLE13=소리새 - 그대 그리고 나
TTITLE14=김상아 - 사랑했어요
TTITLE15=이은하 - 밤차
EXTD=
EXTT0=
EXTT1=
EXTT2=
EXTT3=
EXTT4=
EXTT5=
EXTT6=
EXTT7=
EXTT8=
EXTT9=
EXTT10=
EXTT11=
EXTT12=
EXTT13=
EXTT14=
EXTT15=
PLAYORDER=
